<?xml version="1.0" encoding="UTF-8" standalone="no"?><!DOCTYPE svg PUBLIC "-//W3C//DTD SVG 1.1//EN" "http://www.w3.org/Graphics/SVG/1.1/DTD/svg11.dtd"><svg width="100%" height="100%" viewBox="0 0 4563 4563" version="1.1" xmlns="http://www.w3.org/2000/svg" xmlns:xlink="http://www.w3.org/1999/xlink" xml:space="preserve" xmlns:serif="http://www.serif.com/" style="fill-rule:evenodd;clip-rule:evenodd;stroke-linejoin:round;stroke-miterlimit:2;"><circle cx="2281.33" cy="2281.33" r="2281.33" style="fill:#353332;"/><circle cx="2281.33" cy="2281.33" r="2041.33" style="fill:#fff;"/><circle cx="2281.33" cy="2281.33" r="1649.64" style="fill:#353332;"/><circle cx="2281.33" cy="2281.33" r="1550.64" style="fill:#fff;"/><path d="M2765.58,1856.13c26.35,0.031 81.514,34.27 94.488,47.244c18.874,18.869 -445.179,47.244 -472.441,47.244c-27.261,-0 -508.979,35.433 -555.118,35.433c-23.484,0 -143.904,3.427 -177.166,-23.622c-32.073,-26.083 637.796,-70.866 637.796,-70.866c-0,-0 460.459,-35.449 472.441,-35.433Zm543.307,-47.244c-1.573,-51.802 -19.669,-173.285 -0,-141.733c6.754,10.836 29.149,77.62 35.433,106.3c15.62,71.295 25.049,150.259 23.622,248.031c-1.03,70.528 -8.639,171.689 -23.622,248.032c-15.71,80.046 -21.012,93.517 -35.433,118.11c-10.095,17.213 -5.806,-76.976 -0,-165.354c2.425,-36.922 12.104,-118.511 11.811,-200.788c-0.314,-88.035 -10.726,-176.859 -11.811,-212.598Zm-1759.84,673.228c0,0 -0.929,-12.34 2.198,-22.054c2.283,-7.091 8.65,-12.062 9.613,-13.379c32.621,-44.479 43.969,-182.944 118.11,-212.598c74.134,-29.657 658.204,-47.299 720.473,-35.434c62.275,11.857 138.767,23.469 141.732,59.056c2.967,35.588 0,318.897 0,318.897c0,0 -56.946,82.546 -59.055,271.654c0,-0 -5.1,2.453 -6.861,4.337c-1.968,2.107 -4.95,8.306 -4.95,8.306l-1295.14,-0c-1.699,9.188 17.749,52.819 17.749,62.904c-0,56.228 6.138,54.374 41.305,54.374l1814.83,0c35.175,0 38.096,-13.149 57.249,-42.563c5.504,-8.451 7.116,-65.527 5.419,-74.715l-39.046,-0.832c0.288,-2.224 -2.031,-4.619 -4.372,-7.535c-2.056,-2.561 -6.381,-2.52 -7.439,-4.276c0.535,-47.261 -67.365,-689.325 -59.055,-767.717c17.798,-2.89 106.299,0 106.299,0c0,0 7.369,39.04 11.811,59.055c4.449,20.022 47.244,59.055 47.244,59.055c0,0 5.164,23.316 11.811,47.245c3.695,13.298 6.98,63.81 11.811,64.482c22.566,115.935 54.113,124.341 94.489,124.494c67.148,-0.006 129.921,-180.818 129.921,-413.386c-0,-232.56 -62.773,-413.386 -129.921,-413.386c-40.767,0.1 -79.356,37.237 -94.489,94.488c-4.274,0.697 -4.102,40.099 -11.811,59.056c-6.444,15.847 -9.168,22.103 -11.811,35.433c-0.266,-8.772 -37.158,7.35 -47.244,35.433c-9.234,25.713 -11.811,59.055 -11.811,59.055l-106.299,-0c-25.755,-47.399 -75.9,-83.406 -169.183,-83.406c-14.555,-0 -20.801,-0.77 -43.415,0.729l-0,-23.622l23.622,-0c5.519,-0 11.868,-0.472 11.868,-5.991c0,-5.519 -11.868,-5.82 -11.868,-5.82c0.031,-11.808 0.043,-11.836 -0,-35.433l-0,-35.434c-0,0 11.849,-0.045 11.811,-5.811c-0.039,-5.774 -8.826,-6 -11.811,-6l-23.622,0c2.331,-3.99 11.811,-7.27 11.811,-11.811c-0,-7.233 -27.642,-11.811 -35.433,-11.811c-7.782,0 -35.433,4.578 -35.433,11.811c0.015,4.541 9.464,7.829 11.811,11.811l-23.622,0c-2.836,0 -11.751,-0.049 -11.811,6.35c-0.053,5.502 11.811,5.461 11.811,5.461l-0,35.434c-0,11.888 0.097,23.935 -0,35.433c-0,-0 -11.521,0.301 -11.521,5.82c0,5.519 6,5.991 11.521,5.991l23.622,-0l-0,23.622c-222.148,17.551 -770.021,68.304 -862.205,70.866c-106.755,2.967 -156.355,-32.366 -188.977,-59.055c-32.621,-26.695 -79.931,-107.429 -97.721,-113.363c-10.03,-3.341 -2.643,-1.644 -44.011,-4.748l0,-23.622l11.811,0c9.216,-1.415 12.033,-7.363 11.811,-11.811c-0.258,-5.183 -4.873,-9.012 -11.811,-11.811l-106.299,0c-4.358,0 -11.811,5.906 -11.811,11.811c-0,5.906 7.453,11.811 11.811,11.811l11.811,0l0,23.622c-16.391,-1.131 -47.244,-11.811 -47.244,-11.811c-0,0 -17.717,-1.968 -23.622,0c-2.591,0.864 -11.434,12.029 -11.811,23.623c-0.4,12.305 -0,23.622 -0,23.622c-0,-0 7.066,327.38 11.811,460.629c3.602,101.145 11.811,283.465 11.811,283.465c-0,0 0.418,13.88 11.811,23.622c8.372,7.16 26.463,10.723 35.433,11.811l-0,11.811l-11.811,0c-0,0 -7.744,-11.811 -11.811,-11.811l-11.811,0l-0,35.433l11.811,0c4.067,0 11.811,-11.811 11.811,-11.811l11.811,0l23.622,47.244l0,129.922l-11.811,11.811l0,11.811l-11.811,-0l-11.811,-11.811l-11.811,-0l-0,35.433l11.811,-0l11.811,-11.811l12.831,-0.213l10.791,71.079l-11.811,-0c-4.985,-0 -11.29,6.973 -11.811,11.811l15.699,-0l10.541,-7.712l17.465,0l-9.946,7.712l13.485,-0c0,-0 6.577,-2.207 8.545,-4.175c1.958,-1.958 3.266,-7.636 3.266,-7.636l-11.811,-0l0,-47.244l11.811,-0l11.811,-165.355l11.811,0l11.811,11.811l17.467,0l-0,-47.244l-17.467,0l-11.811,11.811l-23.622,0l0,-82.677c4.023,-3.444 6.09,-21.613 11.811,-23.622c3.205,-1.125 10.556,-4.66 11.811,0c1.18,4.378 -1.971,16.698 0,23.622c3.542,-0.006 4.513,1.02 5.947,1.028c1.479,0.009 3.402,-1.002 5.864,-1.028c1.689,-2.286 0,-23.622 0,-23.622Z" style="fill:#353332;"/></svg>