<?xml version="1.0" encoding="UTF-8" standalone="no"?><!DOCTYPE svg PUBLIC "-//W3C//DTD SVG 1.1//EN" "http://www.w3.org/Graphics/SVG/1.1/DTD/svg11.dtd"><svg width="100%" height="100%" viewBox="0 0 25767 4563" version="1.1" xmlns="http://www.w3.org/2000/svg" xmlns:xlink="http://www.w3.org/1999/xlink" xml:space="preserve" xmlns:serif="http://www.serif.com/" style="fill-rule:evenodd;clip-rule:evenodd;stroke-linecap:round;stroke-linejoin:round;stroke-miterlimit:1.5;"><g><path d="M146.354,1162.17l0,125.145l138.021,-0l0,-125.145l138.021,0l-0,202.018l136.803,-0l-0,-202.018l138.02,0l0,125.145l138.021,-0l0,-125.145l138.021,0l0,202.018l136.803,-0l-0,-202.018l138.021,0l-0,125.145l138.021,-0l-0,-125.145l138.02,0l0,202.018l136.803,-0l0,-202.018l138.021,0l0,125.145l138.021,-0l-0,-125.145l138.021,0l-0,202.018l136.803,-0l-0,-202.018l138.02,0l0,125.145l138.021,-0l0,-125.145l138.021,0l0,202.018l136.803,-0l-0,-202.018l138.021,0l-0,125.145l138.021,-0l-0,-125.145l138.02,0l0,202.018l136.803,-0l0,-202.018l138.021,0l0,125.145l138.021,-0l-0,-125.145l138.021,0l-0,202.018l136.802,-0l0,-202.018l138.021,0l0,125.145l138.021,-0l0,-125.145l138.021,0l0,202.018l136.803,-0l-0,-202.018l138.021,0l-0,125.145l138.02,-0l0,-125.145l138.021,0l0,202.018l136.803,-0l0,-202.018l138.021,0l-0,125.145l138.021,-0l-0,-125.145l138.021,0l-0,202.018l136.802,-0l0,-202.018l138.021,0l0,125.145l138.021,-0l0,-125.145l138.021,0l-0,202.018l136.803,-0l-0,-202.018l138.021,0l-0,125.145l138.02,-0l0,-125.145l138.021,0l0,202.018l136.803,-0l-0,-202.018l138.021,0l-0,125.145l138.021,-0l-0,-125.145l138.021,0l-0,202.018l136.802,-0l0,-202.018l138.021,0l0,125.145l138.021,-0l-0,-125.145l138.021,0l-0,202.018l136.803,-0l-0,-202.018l138.02,0l0,125.145l138.021,-0l0,-125.145l138.021,0l0,202.018l136.803,-0l-0,-202.018l138.021,0l-0,125.145l138.021,-0l-0,-125.145l138.02,0l0,202.018l136.803,-0l0,-202.018l138.021,0l0,125.145l138.021,-0l-0,-125.145l138.021,0l-0,202.018l136.803,-0l-0,-202.018l138.02,0l0,125.145l138.021,-0l0,-125.145l138.021,0l0,202.018l136.803,-0l-0,-202.018l138.021,0l-0,125.145l138.021,-0l-0,-125.145l138.02,0l0,202.018l136.803,-0l0,-202.018l138.021,0l-0,125.145l138.021,-0l-0,-125.145l138.021,0l-0,202.018l136.802,-0l0,-202.018l138.021,0l0,125.145l138.021,-0l0,-125.145l138.021,0l-0,202.018l136.803,-0l-0,-202.018l138.021,0l-0,125.145l138.02,-0l0,-125.145l138.021,0l0,202.018l136.803,-0l0,-202.018l138.021,0l-0,125.145l138.021,-0l-0,-125.145l138.021,0l-0,202.018l136.802,-0l0,-202.018l138.021,0l0,125.145l138.021,-0l0,-125.145l138.021,0l-0,202.018l136.803,-0l-0,-202.018l138.021,0l-0,125.145l138.02,-0l0,-125.145l138.021,0l0,202.018l136.803,-0l-0,-202.018l138.021,0l-0,125.145l138.021,-0l-0,-125.145l138.021,0l-0,2238.31l-14185.7,-0l0,-2238.31l138.021,0Z" style="fill:#fff;stroke:#353332;stroke-width:16.67px;"/><path d="M25619.8,1162.17l-0,125.145l-137.906,-0l-0,-125.145l-137.906,0l-0,202.018l-136.689,-0l-0,-202.018l-137.906,0l-0,125.145l-137.906,-0l-0,-125.145l-137.906,0l-0,202.018l-136.689,-0l0,-202.018l-137.906,0l0,125.145l-137.906,-0l0,-125.145l-137.906,0l0,202.018l-136.689,-0l0,-202.018l-137.905,0l-0,125.145l-137.906,-0l-0,-125.145l-137.906,0l-0,202.018l-136.689,-0l-0,-202.018l-137.906,0l-0,125.145l-137.906,-0l-0,-125.145l-137.906,0l0,202.018l-136.689,-0l0,-202.018l-137.906,0l0,125.145l-137.906,-0l0,-125.145l-137.906,0l0,202.018l-136.688,-0l-0,-202.018l-137.906,0l-0,125.145l-137.906,-0l-0,-125.145l-137.906,0l-0,202.018l-136.689,-0l-0,-202.018l-137.906,0l-0,125.145l-137.906,-0l-0,-125.145l-137.906,0l0,202.018l-136.689,-0l0,-202.018l-137.906,0l0,125.145l-137.906,-0l0,-125.145l-137.906,0l0,202.018l-136.688,-0l-0,-202.018l-137.906,0l-0,125.145l-137.906,-0l-0,-125.145l-137.906,0l-0,202.018l-136.689,-0l-0,-202.018l-137.906,0l-0,125.145l-137.906,-0l0,-125.145l-137.906,0l0,202.018l-136.689,-0l0,-202.018l-137.906,0l0,125.145l-137.906,-0l0,-125.145l-137.906,0l0,202.018l-136.688,-0l-0,-202.018l-137.906,0l-0,125.145l-137.906,-0l-0,-125.145l-137.906,0l-0,202.018l-136.689,-0l-0,-202.018l-137.906,0l0,125.145l-137.906,-0l0,-125.145l-137.906,0l0,202.018l-136.689,-0l0,-202.018l-137.906,0l0,125.145l-137.906,-0l0,-125.145l-137.906,0l0,202.018l-136.688,-0l-0,-202.018l-137.906,0l-0,125.145l-137.906,-0l-0,-125.145l-137.906,0l-0,202.018l-136.689,-0l-0,-202.018l-137.906,0l0,125.145l-137.906,-0l0,-125.145l-137.906,0l0,202.018l-136.689,-0l0,-202.018l-137.906,0l0,125.145l-137.906,-0l0,-125.145l-137.905,0l-0,202.018l-136.689,-0l-0,-202.018l-137.906,0l-0,125.145l-137.906,-0l-0,-125.145l-137.906,0l-0,202.018l-136.689,-0l0,-202.018l-137.906,0l0,125.145l-137.906,-0l0,-125.145l-137.906,0l0,202.018l-136.689,-0l0,-202.018l-137.906,0l0,125.145l-137.906,-0l0,-125.145l-137.905,0l-0,202.018l-136.689,-0l-0,-202.018l-137.906,0l-0,125.145l-137.906,-0l-0,-125.145l-137.906,0l-0,202.018l-136.689,-0l0,-202.018l-137.906,0l0,125.145l-137.906,-0l0,-125.145l-137.906,0l0,202.018l-136.689,-0l0,-202.018l-137.906,0l0,125.145l-137.905,-0l-0,-125.145l-137.906,0l-0,202.018l-136.689,-0l-0,-202.018l-137.906,0l-0,125.145l-137.906,-0l-0,-125.145l-137.906,0l-0,202.018l-136.689,-0l0,-202.018l-137.906,0l0,125.145l-137.906,-0l0,-125.145l-137.906,0l0,2238.31l14173.9,-0l0,-2238.31l-137.905,0Z" style="fill:#fff;stroke:#353332;stroke-width:16.67px;"/><circle cx="12883" cy="2281.33" r="2281.33" style="fill:#353332;"/><circle cx="12883" cy="2281.33" r="2041.33" style="fill:#fff;"/><circle cx="12883" cy="2281.33" r="1649.64" style="fill:#353332;"/><circle cx="12883" cy="2281.33" r="1550.64" style="fill:#fff;"/><g><path d="M3737.88,1773.39l57.835,-0l8.262,38.832l707.242,0l6.609,-38.832l60.314,-0l121.454,338.749l-74.359,26.439c-35.803,-90.333 -78.216,-153.814 -127.238,-190.443c-49.022,-36.629 -111.814,-54.944 -188.377,-54.944c-31.947,0 -50.95,1.24 -57.009,3.718c-6.059,2.479 -10.328,6.748 -12.807,12.807c-2.478,6.059 -3.718,25.337 -3.718,57.835l0,799.778c0,38.006 2.066,63.619 6.197,76.838c4.131,13.219 10.052,23.409 17.764,30.57c7.711,7.161 18.314,12.256 31.809,15.285c13.495,3.029 43.652,4.82 90.471,5.37l-0,69.403l-444.505,-0l0,-69.403c49.022,-0.55 79.042,-2.216 90.058,-4.996c19.278,-5.542 33.049,-16.076 41.311,-31.602c8.262,-15.526 12.393,-44.087 12.393,-85.682l-0,-816.366c-0,-25.312 -1.239,-40.72 -3.718,-46.223c-2.479,-5.504 -7.161,-9.769 -14.046,-12.794c-6.885,-3.025 -21.068,-4.538 -42.55,-4.538c-60.038,0 -108.097,7.712 -144.175,23.134c-36.078,15.423 -70.09,41.587 -102.037,78.491c-31.948,36.904 -59.213,84.825 -81.796,143.762l-74.359,-26.439l118.975,-338.749Z" style="fill:#353332;fill-rule:nonzero;"/><path d="M5192.39,1812.22l135.164,0l358.694,963.576c17.626,48.385 35.39,80.414 53.291,96.086c17.901,15.672 41.999,23.508 72.294,23.508l18.177,0l-0,69.403l-410.165,-0l-0,-69.403c13.219,-1.101 26.163,-1.652 38.832,-1.652c26.439,-0 43.789,-2.754 52.052,-8.262c15.973,-10.466 23.96,-23.685 23.96,-39.659c-0,-11.567 -7.712,-39.933 -23.134,-85.1l-76.283,-223.078l-417.55,-0l-89.902,249.517c-9.364,25.888 -14.046,43.79 -14.046,53.704c0,11.016 2.892,20.656 8.675,28.918c5.784,8.262 13.633,14.458 23.547,18.59c9.915,4.131 25.889,6.196 47.921,6.196c14.872,0 26.99,0.276 36.354,0.826l-0,69.403l-344.546,-0l0,-69.403c31.947,0 54.944,-3.167 68.989,-9.501c14.046,-6.334 26.302,-16.524 36.767,-30.57c10.465,-14.046 24.236,-43.648 41.311,-88.805l359.598,-954.294Zm-145.492,644.449l355.919,0l-177.327,-495.73l-178.592,495.73Z" style="fill:#353332;fill-rule:nonzero;"/><path d="M5901.75,1812.22l441.199,0l0,69.402l-33.875,0c-31.947,0 -55.081,4.433 -69.402,13.297c-14.321,8.865 -24.786,21.467 -31.396,37.806c-6.61,16.339 -9.915,48.052 -9.915,95.138l0,742.769c0,37.455 3.581,64.031 10.741,79.73c7.161,15.698 17.213,27.127 30.157,34.288c12.944,7.16 36.216,10.74 69.815,10.74l33.875,0l0,69.403l-441.199,-0l-0,-69.403l36.353,0c32.498,0 55.494,-3.718 68.989,-11.154c13.495,-7.435 23.272,-18.176 29.331,-32.222c6.059,-14.046 9.088,-41.173 9.088,-81.382l0,-760.12c0,-42.688 -3.029,-71.377 -9.088,-86.068c-6.059,-14.692 -15.836,-25.501 -29.331,-32.429c-13.495,-6.929 -36.491,-10.393 -68.989,-10.393l-36.353,0l-0,-69.402Z" style="fill:#353332;fill-rule:nonzero;"/><path d="M6487.53,1812.22l446.984,0l-0,69.402l-41.311,0c-31.947,0 -54.531,3.056 -67.75,9.166c-13.219,6.111 -22.859,14.999 -28.918,26.665c-6.059,11.666 -9.088,32.496 -9.088,62.489l-0,803.909c-0,36.904 1.377,58.937 4.131,66.097c3.305,9.915 10.466,17.076 21.482,21.482c7.711,3.305 30.019,4.957 66.923,4.957l61.967,0c71.054,0 132.745,-10.327 185.072,-30.983c52.327,-20.655 97.494,-50.674 135.5,-90.057c38.006,-39.383 74.635,-98.182 109.887,-176.398l73.533,24.787l-128.89,361.057l-829.522,-0l0,-69.403l36.354,0c35.252,0 58.937,-3.029 71.054,-9.088c12.118,-6.059 21.482,-16.111 28.092,-30.157c6.61,-14.046 9.914,-38.144 9.914,-72.294l0,-784.08c0,-39.933 -3.029,-66.697 -9.088,-80.291c-6.059,-13.594 -14.872,-23.302 -26.439,-29.124c-11.567,-5.822 -36.078,-8.734 -73.533,-8.734l-36.354,0l0,-69.402Z" style="fill:#353332;fill-rule:nonzero;"/><path d="M8118.09,1792.39c105.282,-0 200.362,25.337 285.239,76.012c92.054,54.53 162.747,125.309 212.079,212.338c49.332,87.028 73.998,187.826 73.998,302.395c0,177.361 -55.12,321.949 -165.359,433.764c-110.24,111.814 -250.796,167.722 -421.668,167.722c-190.71,-0 -341.74,-67.199 -453.089,-201.597c-90.945,-109.612 -136.417,-240.705 -136.417,-393.279c0,-113.467 25.63,-215.23 76.89,-305.287c51.26,-90.058 124.019,-161.25 218.276,-213.577c94.258,-52.328 197.608,-78.491 310.051,-78.491Zm-0.387,89.231c-86.107,0 -160.069,19.692 -221.885,59.075c-61.815,39.383 -111.35,97.356 -148.602,173.919c-37.253,76.562 -55.88,171.026 -55.88,283.392c0,107.408 18.351,198.43 55.053,273.065c36.702,74.634 85.961,131.781 147.777,171.44c61.816,39.658 131.358,59.487 208.626,59.487c76.718,0 144.605,-19.416 203.663,-58.248c59.057,-38.832 107.903,-99.972 146.537,-183.42c38.634,-83.448 57.951,-176.122 57.951,-278.022c0,-103.553 -19.317,-198.292 -57.951,-284.219c-33.118,-73.809 -76.995,-128.339 -131.633,-163.591c-54.638,-35.252 -122.523,-52.878 -203.656,-52.878Z" style="fill:#353332;fill-rule:nonzero;"/><path d="M8860.43,1812.22l594.876,0c112.916,0 198.292,11.705 256.127,35.114c57.835,23.41 102.313,57.285 133.434,101.625c31.121,44.34 46.682,95.704 46.682,154.089c-0,60.039 -15.186,113.33 -45.559,159.873c-30.372,46.544 -74.137,83.173 -131.297,109.887c-57.16,26.715 -132.959,40.623 -227.397,41.724l305.055,371.837c24.786,30.836 41.035,49.831 48.747,56.983c19.278,17.075 39.52,30.017 60.727,38.825c21.206,8.809 45.028,13.213 71.467,13.213l20.656,0l-0,69.403l-262.518,-0l-423.797,-550.261l-148.113,0l0,355.273c0,39.659 1.377,64.445 4.132,74.36c6.058,18.728 15.835,31.947 29.33,39.658c13.495,7.712 39.796,11.567 78.904,11.567l29.744,0l-0,69.403l-441.2,-0l-0,-69.403l39.658,0c29.744,0 49.711,-1.927 59.901,-5.783c10.19,-3.856 19.279,-10.603 27.265,-20.242c7.987,-9.64 13.633,-21.895 16.938,-36.767c1.101,-6.059 1.928,-33.875 2.478,-83.448l0,-754.336c0,-33.539 -3.305,-57.575 -9.914,-72.107c-6.61,-14.532 -15.836,-25.012 -27.679,-31.441c-11.842,-6.429 -32.36,-9.644 -61.553,-9.644l-47.094,0l-0,-69.402Zm299.09,90.058l0,433.764l237.473,-0c80.539,-0 137.083,-4.958 169.633,-14.872c46.337,-13.22 82.882,-37.455 109.635,-72.707c26.753,-35.252 40.13,-80.143 40.13,-134.674c-0,-46.268 -9.655,-85.238 -28.963,-116.909c-19.309,-31.672 -45.649,-55.357 -79.02,-71.055c-33.371,-15.698 -83.158,-23.547 -149.358,-23.547l-299.53,-0Z" style="fill:#353332;fill-rule:nonzero;"/></g><g><path d="M16685.1,1812.22l364.078,0l340.272,912.97l332.372,-912.97l351.322,0l0,69.402l-29.743,0c-35.803,0 -59.901,3.051 -72.294,9.153c-12.394,6.102 -22.17,16.781 -29.331,32.036c-7.161,15.254 -10.741,40.357 -10.741,75.308l0,760.119c0,47.921 2.892,79.042 8.675,93.363c5.784,14.321 15.423,25.2 28.918,32.635c13.495,7.436 38.419,11.154 74.773,11.154l29.743,0l0,69.403l-440.373,-0l-0,-69.403l31.396,0c28.092,0 48.609,-2.203 61.553,-6.609c12.944,-4.407 23.685,-11.705 32.223,-21.895c8.537,-10.19 13.357,-20.793 14.459,-31.809c2.754,-22.584 4.131,-40.21 4.131,-52.878l-0,-848.525l-376.42,1031.12l-82.57,-0l-378.794,-1016.25l-0,816.302c-0,41.578 3.58,69.71 10.741,84.397c7.16,14.687 18.314,26.049 33.461,34.088c15.148,8.038 42.275,12.057 81.383,12.057l26.439,0l-0,69.403l-405.673,-0l0,-69.403l23.134,0c39.108,0 67.062,-4.131 83.861,-12.393c16.8,-8.262 28.78,-19.967 35.941,-35.114c7.16,-15.147 10.741,-45.029 10.741,-89.645l-0,-752.683c-0,-42.146 -3.03,-70.011 -9.089,-83.596c-6.059,-13.586 -16.111,-23.705 -30.157,-30.357c-14.045,-6.653 -38.97,-9.98 -74.772,-9.98l-39.659,0l0,-69.402Z" style="fill:#353332;fill-rule:nonzero;"/><path d="M18670.8,1812.22l135.164,0l358.694,963.576c17.626,48.385 35.39,80.414 53.291,96.086c17.901,15.672 41.999,23.508 72.294,23.508l18.177,0l-0,69.403l-410.165,-0l-0,-69.403c13.219,-1.101 26.163,-1.652 38.832,-1.652c26.439,-0 43.789,-2.754 52.051,-8.262c15.974,-10.466 23.961,-23.685 23.961,-39.659c-0,-11.567 -7.712,-39.933 -23.134,-85.1l-76.283,-223.078l-417.55,-0l-89.902,249.517c-9.364,25.888 -14.046,43.79 -14.046,53.704c-0,11.016 2.892,20.656 8.675,28.918c5.784,8.262 13.633,14.458 23.547,18.59c9.915,4.131 25.888,6.196 47.921,6.196c14.872,0 26.99,0.276 36.353,0.826l0,69.403l-344.545,-0l0,-69.403c31.947,0 54.944,-3.167 68.989,-9.501c14.046,-6.334 26.301,-16.524 36.767,-30.57c10.465,-14.046 24.236,-43.648 41.311,-88.805l359.598,-954.294Zm-145.492,644.449l355.919,0l-177.327,-495.73l-178.592,495.73Z" style="fill:#353332;fill-rule:nonzero;"/><path d="M19380.2,1812.22l441.2,0l0,69.402l-33.875,0c-31.947,0 -55.081,4.433 -69.402,13.297c-14.321,8.865 -24.786,21.467 -31.396,37.806c-6.61,16.339 -9.915,48.052 -9.915,95.138l0,742.769c0,37.455 3.581,64.031 10.741,79.73c7.161,15.698 17.213,27.127 30.157,34.288c12.944,7.16 36.216,10.74 69.815,10.74l33.875,0l0,69.403l-441.2,-0l0,-69.403l36.354,0c32.498,0 55.494,-3.718 68.989,-11.154c13.495,-7.435 23.272,-18.176 29.331,-32.222c6.059,-14.046 9.088,-41.173 9.088,-81.382l0,-760.12c0,-42.688 -3.029,-71.377 -9.088,-86.068c-6.059,-14.692 -15.836,-25.501 -29.331,-32.429c-13.495,-6.929 -36.491,-10.393 -68.989,-10.393l-36.354,0l0,-69.402Z" style="fill:#353332;fill-rule:nonzero;"/><path d="M19968.5,1881.62l-0,-69.402l411.456,0c188.377,0 319.746,11.843 394.105,35.528c109.612,34.701 198.568,99.421 266.868,194.16c75.461,104.655 113.192,225.007 113.192,361.057c-0,92.536 -18.59,178.601 -55.77,258.193c-37.179,79.592 -86.064,143.624 -146.653,192.095c-50.124,40.76 -110.438,69.54 -180.942,86.34c-70.503,16.8 -141.558,25.2 -213.164,25.2l-589.092,-0l-0,-69.403l47.92,0l15.699,0.827c20.38,-0 37.042,-4.131 49.986,-12.394c12.944,-8.262 22.17,-19.278 27.678,-33.048c3.856,-10.466 5.783,-34.701 5.783,-72.707l0,-770.861c0,-43.798 -2.754,-72.074 -8.262,-84.829c-7.711,-17.187 -20.104,-29.107 -37.179,-35.76c-9.915,-3.33 -43.79,-4.996 -101.625,-4.996Zm299.917,994.765l249.814,0c24.812,0 66.031,-4.41 123.655,-13.232c57.624,-8.822 98.847,-19.571 123.668,-32.248c36.396,-18.745 71.689,-48.928 105.878,-90.548c34.189,-41.621 60.521,-91.513 78.994,-149.675c18.474,-58.162 27.711,-124.728 27.711,-199.699c-0,-74.42 -9.237,-138.918 -27.711,-193.496c-18.473,-54.578 -46.322,-103.643 -83.544,-147.196c-37.223,-43.553 -78.581,-76.767 -124.075,-99.643c-45.494,-22.876 -96.366,-37.347 -152.618,-43.415c-30.329,-2.754 -81.064,-4.131 -152.204,-4.131l-169.568,0l-0,973.283Z" style="fill:#353332;fill-rule:nonzero;"/></g><path d="M13367.3,1856.13c26.35,0.031 81.514,34.27 94.488,47.244c18.874,18.869 -445.178,47.244 -472.441,47.244c-27.26,-0 -508.979,35.433 -555.118,35.433c-23.484,0 -143.904,3.427 -177.165,-23.622c-32.074,-26.083 637.795,-70.866 637.795,-70.866c-0,-0 460.459,-35.449 472.441,-35.433Zm543.307,-47.244c-1.573,-51.802 -19.669,-173.285 -0,-141.733c6.755,10.836 29.15,77.62 35.433,106.3c15.62,71.295 25.05,150.259 23.622,248.031c-1.03,70.528 -8.639,171.689 -23.622,248.032c-15.71,80.046 -21.011,93.517 -35.433,118.11c-10.094,17.213 -5.806,-76.976 -0,-165.354c2.426,-36.922 12.104,-118.511 11.811,-200.788c-0.314,-88.035 -10.726,-176.859 -11.811,-212.598Zm-1759.84,673.228c0,0 -0.929,-12.34 2.199,-22.054c2.283,-7.091 8.649,-12.062 9.612,-13.379c32.622,-44.479 43.969,-182.944 118.111,-212.598c74.133,-29.657 658.203,-47.299 720.472,-35.434c62.275,11.857 138.767,23.469 141.732,59.056c2.967,35.588 0,318.897 0,318.897c0,0 -56.945,82.546 -59.055,271.654c0,-0 -5.1,2.453 -6.861,4.337c-1.968,2.107 -4.95,8.306 -4.95,8.306l-1295.14,-0c-1.699,9.188 17.749,52.819 17.749,62.904c-0,56.228 6.138,54.374 41.305,54.374l1814.83,0c35.176,0 38.097,-13.149 57.25,-42.563c5.503,-8.451 7.115,-65.527 5.419,-74.715l-39.047,-0.832c0.288,-2.224 -2.031,-4.619 -4.372,-7.535c-2.056,-2.561 -6.381,-2.52 -7.439,-4.276c0.535,-47.261 -67.365,-689.325 -59.055,-767.717c17.798,-2.89 106.3,0 106.3,0c-0,0 7.368,39.04 11.811,59.055c4.448,20.022 47.244,59.055 47.244,59.055c-0,0 5.163,23.316 11.811,47.245c3.694,13.298 6.98,63.81 11.811,64.482c22.565,115.935 54.113,124.341 94.488,124.494c67.148,-0.006 129.921,-180.818 129.921,-413.386c0,-232.56 -62.773,-413.386 -129.921,-413.386c-40.767,0.1 -79.356,37.237 -94.488,94.488c-4.275,0.697 -4.103,40.099 -11.811,59.056c-6.445,15.847 -9.169,22.103 -11.811,35.433c-0.266,-8.772 -37.159,7.35 -47.244,35.433c-9.235,25.713 -11.811,59.055 -11.811,59.055l-106.3,-0c-25.755,-47.399 -75.9,-83.406 -169.183,-83.406c-14.555,-0 -20.801,-0.77 -43.415,0.729l-0,-23.622l23.622,-0c5.519,-0 11.869,-0.472 11.869,-5.991c-0,-5.519 -11.869,-5.82 -11.869,-5.82c0.031,-11.808 0.043,-11.836 -0,-35.433l-0,-35.434c-0,0 11.85,-0.045 11.811,-5.811c-0.039,-5.774 -8.825,-6 -11.811,-6l-23.622,0c2.331,-3.99 11.811,-7.27 11.811,-11.811c-0,-7.233 -27.642,-11.811 -35.433,-11.811c-7.782,0 -35.433,4.578 -35.433,11.811c0.015,4.541 9.464,7.829 11.811,11.811l-23.622,0c-2.836,0 -11.751,-0.049 -11.811,6.35c-0.052,5.502 11.811,5.461 11.811,5.461l-0,35.434c-0,11.888 0.098,23.935 -0,35.433c-0,-0 -11.521,0.301 -11.521,5.82c0,5.519 6,5.991 11.521,5.991l23.622,-0l-0,23.622c-222.148,17.551 -770.021,68.304 -862.205,70.866c-106.755,2.967 -156.355,-32.366 -188.976,-59.055c-32.621,-26.695 -79.932,-107.429 -97.722,-113.363c-10.03,-3.341 -2.643,-1.644 -44.011,-4.748l0,-23.622l11.811,0c9.216,-1.415 12.033,-7.363 11.811,-11.811c-0.258,-5.183 -4.873,-9.012 -11.811,-11.811l-106.299,0c-4.357,0 -11.811,5.906 -11.811,11.811c0,5.906 7.454,11.811 11.811,11.811l11.811,0l0,23.622c-16.391,-1.131 -47.244,-11.811 -47.244,-11.811c0,0 -17.716,-1.968 -23.622,0c-2.591,0.864 -11.434,12.029 -11.811,23.623c-0.4,12.305 0,23.622 0,23.622c0,-0 7.066,327.38 11.811,460.629c3.602,101.145 11.811,283.465 11.811,283.465c0,0 0.418,13.88 11.811,23.622c8.372,7.16 26.463,10.723 35.433,11.811l0,11.811l-11.811,0c0,0 -7.744,-11.811 -11.811,-11.811l-11.811,0l0,35.433l11.811,0c4.067,0 11.811,-11.811 11.811,-11.811l11.811,0l23.622,47.244l0,129.922l-11.811,11.811l0,11.811l-11.811,-0l-11.811,-11.811l-11.811,-0l0,35.433l11.811,-0l11.811,-11.811l12.831,-0.213l10.791,71.079l-11.811,-0c-4.985,-0 -11.29,6.973 -11.811,11.811l15.699,-0l10.542,-7.712l17.464,0l-9.946,7.712l13.485,-0c0,-0 6.577,-2.207 8.546,-4.175c1.957,-1.958 3.265,-7.636 3.265,-7.636l-11.811,-0l0,-47.244l11.811,-0l11.811,-165.355l11.811,0l11.811,11.811l17.467,0l-0,-47.244l-17.467,0l-11.811,11.811l-23.622,0l0,-82.677c4.024,-3.444 6.091,-21.613 11.811,-23.622c3.205,-1.125 10.556,-4.66 11.811,0c1.18,4.378 -1.97,16.698 0,23.622c3.543,-0.006 4.513,1.02 5.947,1.028c1.48,0.009 3.402,-1.002 5.864,-1.028c1.689,-2.286 0,-23.622 0,-23.622Z" style="fill:#353332;"/></g></svg>